<svg xmlns="http://www.w3.org/2000/svg" viewBox="0 0 512 512" style="" data-bbox="35.765 18.286 440.471 440.418"><rect data-fl-background="" x="0" y="0" width="512" height="512" fill="transparent"/><g data-icon="" transform="matrix(0.8722619613264496, 0, 0, 0.8722619613264496, 32.70132013726365, 13.924398784528904)"><path d="m18.498 356.892c-8.174 0-14.8-6.627-14.8-14.8v-67.192c0-8.174 6.627-14.8 14.8-14.8s14.8 6.627 14.8 14.8v67.192c0 8.174-6.626 14.8-14.8 14.8z" fill="#009954"/><path d="m99.809 356.892c-8.174 0-14.8-6.627-14.8-14.8v-67.192c0-8.174 6.627-14.8 14.8-14.8s14.8 6.627 14.8 14.8v67.192c0 8.174-6.626 14.8-14.8 14.8z" fill="#006635"/><path d="m318.371 509.915h-9.925c-54.021 0-97.971-43.949-97.971-97.97v-308.974c0-37.7-30.67-68.37-68.37-68.37s-68.37 30.67-68.37 68.37v119.131c0 8.174-6.627 14.8-14.8 14.8s-14.8-6.627-14.8-14.8v-119.131c0-54.022 43.949-97.971 97.971-97.971s97.971 43.949 97.971 97.971v308.974c0 37.699 30.67 68.37 68.37 68.37h9.925c37.639 0 68.31-30.623 68.369-68.263l.107-68.286v-200.806c0-8.174 6.627-14.8 14.8-14.8 8.174 0 14.8 6.627 14.8 14.8v200.83l-.107 68.309c-.084 53.936-44.034 97.816-97.97 97.816z" fill="#006635"/><path d="m476.223 123.011-64.966-64.966c-5.394-5.395-14.14-5.395-19.534 0l-64.966 64.966c-43.019 43.019-43.019 113.015 0 156.032l64.966 64.966c2.697 2.698 6.232 4.045 9.767 4.045 2.769 0 3.844-7.715 6.21-9.37.654-.458 2.355-1.356 2.939-1.94l5.755 2.126 59.828-59.828c43.02-43.016 43.02-113.012.001-156.031z" fill="#bee75e"/><path d="m411.256 58.045c-2.697-2.698-6.232-4.045-9.767-4.046v294.057c3.535 0 4.277-7.202 6.975-9.899l7.93.715 59.828-59.828c43.019-43.019 43.019-113.015 0-156.032z" fill="#00cb75"/><path d="m443.227 173.126c-5.82-5.821-15.257-5.821-21.079 0l-5.753 5.754v-45.53c0-1.029-.105-2.034-.303-3.003-.247-1.204-.653-2.346-1.171-3.426-.734-1.529-1.706-2.924-2.892-4.11-2.206-2.206-5.105-3.705-8.338-4.186-.72-.107-1.451-.181-2.201-.181-8.232 0-14.905 6.673-14.905 14.905v45.528l-14.26-14.26c-5.82-5.821-15.258-5.821-21.078 0-5.82 5.82-5.82 15.257 0 21.079l35.337 35.337.262 118.101 4.875 4.875c2.697 2.698 6.232 4.045 9.767 4.045 3.093 0 3.62-6.541 6.151-8.606.362-.295 2.073.572 2.41.235l6.342-.813v-117.832l26.832-26.833c5.824-5.821 5.824-15.258.004-21.079z" fill="#9bda05"/><path d="m443.227 194.205c5.82-5.82 5.82-15.258 0-21.079s-15.257-5.821-21.079 0l-5.753 5.754v-45.53c0-1.029-.105-2.034-.303-3.003-.247-1.204-.653-2.346-1.171-3.426-.734-1.529-1.706-2.924-2.892-4.11-2.206-2.206-5.105-3.705-8.338-4.186-.72-.107-1.451-.181-2.201-.181v229.611c3.093 0 6.187-1.033 8.717-3.097.362-.295.712-.611 1.049-.948l5.138-5.138v-117.834z" fill="#00a763"/><path d="m103.578 308.295-88.985.201c-6.116.014-11.081-4.94-11.081-11.056v-41.143c0-30.631 24.87-55.462 55.548-55.462s55.548 24.831 55.548 55.462v40.942c.001 6.096-4.933 11.042-11.03 11.056z" fill="#bee75e"/><path d="m103.579 308.396c6.096-.014 11.03-4.959 11.03-11.056v-40.942c0-30.631-24.87-55.462-55.548-55.462v107.56z" fill="#9bda05"/></g></svg>